<svg id="Layer_15_copy_6" data-name="Layer 15 copy 6" xmlns="http://www.w3.org/2000/svg" xmlns:xlink="http://www.w3.org/1999/xlink" viewBox="0 0 1489.27 473.02"><defs><style>.cls-1{fill:url(#Degradado_sin_nombre_337);}.cls-2{fill:url(#Degradado_sin_nombre_337-2);}.cls-3{fill:url(#Degradado_sin_nombre_337-3);}.cls-4{fill:url(#Degradado_sin_nombre_337-4);}.cls-5{fill:url(#Degradado_sin_nombre_337-5);}.cls-6{fill:url(#Degradado_sin_nombre_337-6);}.cls-7{fill:url(#Degradado_sin_nombre_337-7);}.cls-8{fill:url(#Degradado_sin_nombre_337-8);}.cls-9{fill:url(#Degradado_sin_nombre_337-9);}.cls-10{font-size:162.38px;font-family:Freshman;}.cls-10,.cls-11{fill:#fff;}.cls-11{font-size:44.46px;font-family:MonumentExtended-Regular, Monument Extended;letter-spacing:0.18em;}.cls-12{letter-spacing:0.16em;}.cls-13{letter-spacing:0.2em;}.cls-14{letter-spacing:0.16em;}.cls-15{letter-spacing:0.11em;}.cls-16{letter-spacing:0.2em;}.cls-17{letter-spacing:0.19em;}.cls-18{letter-spacing:0.2em;}.cls-19{letter-spacing:0.2em;}.cls-20{letter-spacing:0.19em;}.cls-21{letter-spacing:0.2em;}.cls-22{letter-spacing:0.17em;}.cls-23{letter-spacing:0.19em;}.cls-24{letter-spacing:0.19em;}.cls-25{fill:url(#Degradado_sin_nombre_337-10);}.cls-26{fill:url(#Degradado_sin_nombre_337-11);}</style><linearGradient id="Degradado_sin_nombre_337" x1="327.14" y1="956.5" x2="501.09" y2="956.5" gradientUnits="userSpaceOnUse"><stop offset="0" stop-color="#71cee6"/><stop offset="0.17" stop-color="#6bc1df"/><stop offset="0.47" stop-color="#5c9ecd"/><stop offset="0.88" stop-color="#4467af"/><stop offset="1" stop-color="#3d56a6"/></linearGradient><linearGradient id="Degradado_sin_nombre_337-2" x1="472.16" y1="1191.37" x2="561.81" y2="1191.37" xlink:href="#Degradado_sin_nombre_337"/><linearGradient id="Degradado_sin_nombre_337-3" x1="241.31" y1="1096.79" x2="433.2" y2="1096.79" xlink:href="#Degradado_sin_nombre_337"/><linearGradient id="Degradado_sin_nombre_337-4" x1="412.26" y1="1217.15" x2="489.93" y2="1217.15" xlink:href="#Degradado_sin_nombre_337"/><linearGradient id="Degradado_sin_nombre_337-5" x1="1050.74" y1="1411.74" x2="1239.67" y2="1411.74" gradientTransform="matrix(1, -0.07, 0.07, 1, -773.91, -272.75)" xlink:href="#Degradado_sin_nombre_337"/><linearGradient id="Degradado_sin_nombre_337-6" x1="1237.11" y1="1245.31" x2="1387.15" y2="1245.31" gradientTransform="matrix(1, -0.07, 0.07, 1, -773.91, -272.75)" xlink:href="#Degradado_sin_nombre_337"/><linearGradient id="Degradado_sin_nombre_337-7" x1="1188.06" y1="1331.14" x2="1264.79" y2="1331.14" gradientTransform="matrix(1, -0.07, 0.07, 1, -773.91, -272.75)" xlink:href="#Degradado_sin_nombre_337"/><linearGradient id="Degradado_sin_nombre_337-8" x1="1212.45" y1="1306.62" x2="1289.1" y2="1306.62" gradientTransform="matrix(1, -0.07, 0.07, 1, -773.91, -272.75)" xlink:href="#Degradado_sin_nombre_337"/><linearGradient id="Degradado_sin_nombre_337-9" x1="1373.2" y1="1168.41" x2="1404.59" y2="1168.41" gradientTransform="matrix(1, -0.07, 0.07, 1, -773.91, -272.75)" xlink:href="#Degradado_sin_nombre_337"/><linearGradient id="Degradado_sin_nombre_337-10" x1="1586.52" y1="1059.75" x2="1654.23" y2="1059.75" xlink:href="#Degradado_sin_nombre_337"/><linearGradient id="Degradado_sin_nombre_337-11" x1="1662.35" y1="1059.75" x2="1730.06" y2="1059.75" xlink:href="#Degradado_sin_nombre_337"/></defs><path class="cls-1" d="M427.47,972a113.94,113.94,0,0,1,25.63,2.85c15.53-18.19,33.61-38.43,48-54.32-23-9.66-49-14.75-77.46-14.75-36.05,0-68.91,8.62-96.49,24,4.11,20.11,10.12,47,18.24,77.33C364.53,985.1,393.29,972,427.47,972Z" transform="translate(-241.31 -780.16)"/><path class="cls-2" d="M561.81,1193.21l-49.9-46.06q-17.58,20.55-39.75,30.53a421.64,421.64,0,0,0,35,57.91A154.72,154.72,0,0,0,561.81,1193.21Z" transform="translate(-241.31 -780.16)"/><path class="cls-3" d="M320,1079.5c0-19.39,4.2-37,11.81-52-9.42-33.56-16.38-63.92-21.16-87.06-42.83,30.79-69.33,80-69.33,139.11,0,101.23,77.72,173.68,181.84,173.68,3.39,0,6.73-.09,10.05-.23-16.5-21.34-31.2-46-44.23-72.11C347.16,1166.65,320,1128.92,320,1079.5Z" transform="translate(-241.31 -780.16)"/><path class="cls-4" d="M489.93,1242.58a189.29,189.29,0,0,1-35.05,8.4,347.22,347.22,0,0,1-33.66-48.74c-.4-.69-.8-1.45-1.2-2.14-1.88-3.26-3.7-6.56-5.51-9.89-.76-1.38-1.49-2.79-2.25-4.17a120.4,120.4,0,0,0,14,.83,114.7,114.7,0,0,0,28.38-3.55c.07.11.1.26.18.36s0,0,0,0A449.46,449.46,0,0,0,489.93,1242.58Z" transform="translate(-241.31 -780.16)"/><path class="cls-5" d="M498,957.89c4.6,14.43,8.93,27.39,12.79,40.48,1.24,4.22,3.37,5.84,7.64,6.47,13.39,2,26.71,4.45,40.67,6.83-1,1.35-1.63,2.37-2.41,3.27Q498,1082.55,439.33,1150.19c-1.79,2.06-3.38,2.83-6.19,2.32-13.34-2.43-26.75-4.52-40.08-7a6.18,6.18,0,0,1-4-3.42c-4.36-13-8.34-26.11-12.66-39.11-.87-2.63-.19-4.16,1.46-6.06Q434,1032.46,490,967.89C492.49,965,494.8,961.9,498,957.89Z" transform="translate(-241.31 -780.16)"/><path class="cls-6" d="M673.72,798.66,693.2,816c-6.9,7.85-14,15.83-21,23.87q-22.92,26.31-45.79,52.67c-7.67,8.82-8.82,18.56-3.56,29,1.84,3.65,5.11,7.59,4.72,11.06-.37,3.3-4.64,6.18-7.24,9.22-3,3.47-5.81,7.07-9.06,10.26a6.78,6.78,0,0,1-5,1.75c-13.53-2.09-27-4.5-40.53-6.69a4.81,4.81,0,0,1-4.4-3.8c-4.05-13.09-8.32-26.1-12.27-39.21a6.6,6.6,0,0,1,1.06-5.19c4.85-6,10.11-11.65,15-17.58,1.59-1.92,3-2.11,5.15-1.23,2.5,1.05,5.08,1.9,7.64,2.79,11.89,4.16,21,1.83,29.24-7.63q17.75-20.31,35.38-40.72C652.86,822.62,663.16,810.78,673.72,798.66Z" transform="translate(-241.31 -780.16)"/><path class="cls-7" d="M582.48,985.86c-6.27,7-11.81,13.33-17.52,19.49a4.29,4.29,0,0,1-3.38.83c-14-2.27-27.89-4.58-41.79-7.13a5.72,5.72,0,0,1-3.58-3.36c-4.36-13.14-8.52-26.35-12.6-39.58-.39-1.27-.35-3.26.4-4.19,5.2-6.42,10.63-12.65,16.68-19.76,1,2.82,1.7,4.71,2.31,6.63,3.69,11.56,7.45,23.1,11,34.71.91,3,2.37,4.38,5.55,4.88,13,2,25.9,4.35,38.84,6.57C579.34,985.11,580.29,985.37,582.48,985.86Z" transform="translate(-241.31 -780.16)"/><path class="cls-8" d="M605,959.46c-6.19,7.07-11.73,13.54-17.49,19.82-.72.78-2.63.89-3.89.68-13.65-2.23-27.3-4.52-40.91-7a5.69,5.69,0,0,1-3.72-3.12c-4.44-13.25-8.68-26.57-12.81-39.93a5.28,5.28,0,0,1,.65-4.23C532,919.24,537.46,913,543.46,906c2.16,6.64,4,12.37,5.88,18.11,2.43,7.61,4.95,15.19,7.17,22.86,1,3.3,2.61,4.87,6.11,5.41C576.43,954.5,590.2,957,605,959.46Z" transform="translate(-241.31 -780.16)"/><path class="cls-9" d="M689.46,780.16l19.93,17.42-11.86,13-19.89-17.09Z" transform="translate(-241.31 -780.16)"/><text class="cls-10" transform="translate(334.17 347.22)">CRICSTOCK</text><text class="cls-11" transform="translate(350.32 411.81)">B<tspan class="cls-12" x="49.83" y="0">U</tspan><tspan class="cls-13" x="100.07" y="0">Y </tspan><tspan class="cls-14" x="184.58" y="0">L</tspan><tspan class="cls-15" x="227.21" y="0">OW</tspan><tspan class="cls-16" x="346.89" y="0">. </tspan><tspan class="cls-17" x="396.67" y="0">SE</tspan><tspan class="cls-18" x="492.7" y="0">L</tspan><tspan class="cls-13" x="536.84" y="0">L </tspan><tspan class="cls-19" x="610.59" y="0">H</tspan><tspan class="cls-20" x="664.52" y="0">I</tspan><tspan class="cls-19" x="684.66" y="0">G</tspan><tspan class="cls-21" x="735.34" y="0">H. </tspan><tspan class="cls-22" x="839.32" y="0">W</tspan><tspan class="cls-19" x="914.76" y="0">I</tspan><tspan class="cls-13" x="935.34" y="0">N </tspan><tspan class="cls-23" x="1017.63" y="0">B</tspan><tspan class="cls-24" x="1067.86" y="0">I</tspan><tspan class="cls-21" x="1088" y="0">G</tspan></text><path class="cls-25" d="M1603.4,1038.72h-16.88v-21.43l25.17-25.17h28.9v104.74h13.64v30.52h-67.71v-30.52h16.88Z" transform="translate(-241.31 -780.16)"/><path class="cls-26" d="M1679.24,1038.72h-16.89v-21.43l25.17-25.17h28.9v104.74h13.64v30.52h-67.71v-30.52h16.89Z" transform="translate(-241.31 -780.16)"/></svg>